<svg viewBox="0 0 200 200" xmlns="http://www.w3.org/2000/svg">
  <!-- Gradient definitions -->
  <defs>
    <linearGradient id="primaryGradient" x1="0%" y1="0%" x2="100%" y2="100%">
      <stop offset="0%" style="stop-color:#6366f1;stop-opacity:1" />
      <stop offset="30%" style="stop-color:#8b5cf6;stop-opacity:1" />
      <stop offset="70%" style="stop-color:#3b82f6;stop-opacity:1" />
      <stop offset="100%" style="stop-color:#1e40af;stop-opacity:1" />
    </linearGradient>
    
    <linearGradient id="goldAccent" x1="0%" y1="0%" x2="100%" y2="100%">
      <stop offset="0%" style="stop-color:#fbbf24;stop-opacity:1" />
      <stop offset="100%" style="stop-color:#f59e0b;stop-opacity:1" />
    </linearGradient>
    
    <linearGradient id="textGradient" x1="0%" y1="0%" x2="100%" y2="0%">
      <stop offset="0%" style="stop-color:#ffffff;stop-opacity:1" />
      <stop offset="100%" style="stop-color:#f8fafc;stop-opacity:0.9" />
    </linearGradient>
    
    <filter id="glow" x="-50%" y="-50%" width="200%" height="200%">
      <feDropShadow dx="0" dy="0" stdDeviation="8" flood-color="#6366f1" flood-opacity="0.4"/>
    </filter>
    
    <filter id="textShadow" x="-50%" y="-50%" width="200%" height="200%">
      <feDropShadow dx="1" dy="2" stdDeviation="3" flood-color="rgba(0,0,0,0.3)"/>
    </filter>
  </defs>
  
  <!-- Main circular background -->
  <circle cx="100" cy="100" r="95" fill="url(#primaryGradient)" filter="url(#glow)"/>
  
  <!-- Inner decorative rings -->
  <circle cx="100" cy="100" r="85" fill="none" stroke="rgba(255,255,255,0.2)" stroke-width="2"/>
  <circle cx="100" cy="100" r="75" fill="none" stroke="rgba(255,255,255,0.1)" stroke-width="1"/>
  <circle cx="100" cy="100" r="65" fill="none" stroke="rgba(255,255,255,0.05)" stroke-width="1"/>
  
  <!-- Central connecting symbol -->
  <circle cx="100" cy="100" r="25" fill="none" stroke="white" stroke-width="3" opacity="0.8"/>
  
  <!-- Connected nodes around the circle -->
  <circle cx="100" cy="60" r="8" fill="url(#goldAccent)" opacity="0.9"/>
  <circle cx="100" cy="60" r="6" fill="white"/>
  
  <circle cx="130" cy="80" r="8" fill="url(#goldAccent)" opacity="0.9"/>
  <circle cx="130" cy="80" r="6" fill="white"/>
  
  <circle cx="140" cy="100" r="8" fill="url(#goldAccent)" opacity="0.9"/>
  <circle cx="140" cy="100" r="6" fill="white"/>
  
  <circle cx="130" cy="120" r="8" fill="url(#goldAccent)" opacity="0.9"/>
  <circle cx="130" cy="120" r="6" fill="white"/>
  
  <circle cx="100" cy="140" r="8" fill="url(#goldAccent)" opacity="0.9"/>
  <circle cx="100" cy="140" r="6" fill="white"/>
  
  <circle cx="70" cy="120" r="8" fill="url(#goldAccent)" opacity="0.9"/>
  <circle cx="70" cy="120" r="6" fill="white"/>
  
  <circle cx="60" cy="100" r="8" fill="url(#goldAccent)" opacity="0.9"/>
  <circle cx="60" cy="100" r="6" fill="white"/>
  
  <circle cx="70" cy="80" r="8" fill="url(#goldAccent)" opacity="0.9"/>
  <circle cx="70" cy="80" r="6" fill="white"/>
  
  <!-- Connecting lines to center -->
  <line x1="100" y1="75" x2="100" y2="68" stroke="white" stroke-width="2" opacity="0.6"/>
  <line x1="118" y1="88" x2="125" y2="85" stroke="white" stroke-width="2" opacity="0.6"/>
  <line x1="125" y1="100" x2="132" y2="100" stroke="white" stroke-width="2" opacity="0.6"/>
  <line x1="118" y1="112" x2="125" y2="115" stroke="white" stroke-width="2" opacity="0.6"/>
  <line x1="100" y1="125" x2="100" y2="132" stroke="white" stroke-width="2" opacity="0.6"/>
  <line x1="82" y1="112" x2="75" y2="115" stroke="white" stroke-width="2" opacity="0.6"/>
  <line x1="75" y1="100" x2="68" y2="100" stroke="white" stroke-width="2" opacity="0.6"/>
  <line x1="82" y1="88" x2="75" y2="85" stroke="white" stroke-width="2" opacity="0.6"/>
  
  <!-- Central logo element -->
  <circle cx="100" cy="100" r="12" fill="white" opacity="0.9"/>
  <circle cx="100" cy="100" r="8" fill="url(#goldAccent)" opacity="0.8"/>
  

  
  <!-- Decorative sparkles -->
  <circle cx="120" cy="50" r="2" fill="white" opacity="0.8"/>
  <circle cx="150" cy="70" r="1.5" fill="url(#goldAccent)" opacity="0.7"/>
  <circle cx="160" cy="130" r="2" fill="white" opacity="0.6"/>
  <circle cx="40" cy="130" r="1.5" fill="url(#goldAccent)" opacity="0.7"/>
  <circle cx="30" cy="70" r="2" fill="white" opacity="0.8"/>
  
  <!-- Outer decorative ring -->
  <circle cx="100" cy="100" r="90" fill="none" stroke="url(#goldAccent)" stroke-width="1" opacity="0.3"/>
</svg>